<?xml version="1.0" encoding="utf-8"?>
<!-- Generator: Adobe Illustrator 25.0.0, SVG Export Plug-In . SVG Version: 6.00 Build 0)  -->
<svg version="1.1" id="illustration" xmlns="http://www.w3.org/2000/svg" xmlns:xlink="http://www.w3.org/1999/xlink" x="0px"
	 y="0px" viewBox="0 0 1600 1200" style="enable-background:new 0 0 1600 1200;" xml:space="preserve">
<style type="text/css">
	.st0{fill:#EDF1FC;}
	.st1{fill:none;stroke:#000000;stroke-miterlimit:10;}
	.st2{fill:#FF6666;}
	.st3{fill:#84CFA6;}
	.st4{fill:#AACDE3;}
	.st5{fill:#83AEC4;}
	.st6{fill:#282899;}
	.st7{fill:#F4F4F4;}
	.st8{fill:#FD9429;}
	.st9{fill:#FFC850;}
	.st10{fill:#FFE6A8;}
	.st11{fill:#EB962C;}
	.st12{fill:none;stroke:#FFE6A8;stroke-width:3;stroke-miterlimit:10;}
	.st13{fill:#FD9B2C;}
	.st14{fill:#FFC449;}
	.st15{fill:#FFFFFF;stroke:#000000;stroke-miterlimit:10;}
	.st16{fill:#FFFFFF;stroke:#020202;stroke-miterlimit:10;}
	.st17{fill:#070707;stroke:#000000;stroke-miterlimit:10;}
	.st18{fill:#0D005F;}
	.st19{fill:#3232E0;}
	.st20{fill:#4F47FD;}
	.st21{fill:#E53076;}
	.st22{fill:none;stroke:#FFFFFF;stroke-miterlimit:10;}
	.st23{fill:#09138E;stroke:#050505;stroke-miterlimit:10;}
	.st24{fill:none;stroke:#020202;stroke-miterlimit:10;}
	.st25{fill:#3B3BE2;}
	.st26{fill:#05D3AB;}
	.st27{fill:#03082B;}
	.st28{fill:#0C0C4F;stroke:#0C0C4F;stroke-miterlimit:10;}
	.st29{fill:none;stroke:#000000;stroke-width:2;stroke-miterlimit:10;}
	.st30{fill:#CC7D6C;}
	.st31{fill:#F97362;}
	.st32{fill:#3B7564;}
	.st33{fill:#05CDCD;}
	.st34{fill:#000033;}
	.st35{fill:#FA969E;}
</style>
<g>
	<path class="st0" d="M382.09,953.11c-92.25-165.45-110.65-364.78-55.32-545.94c17.53-57.4,47.66-117.79,103.62-139.49
		c63.71-24.7,139.9,9.31,202.2-18.75c44.4-19.99,70.06-66.31,106.94-98.1c35.25-30.37,80.86-47.09,127.03-52.88
		c124.25-15.61,253.26,49.83,319.88,155.87c52.18,83.07,67.26,183.99,71.72,281.99c6.38,140.21-7.52,284.64-68.56,411.03"/>
	<g>
		<path class="st1" d="M966.95,936.27c0,0,26.02-109.26,151.12-243.41"/>
		
			<ellipse transform="matrix(0.5899 -0.8075 0.8075 0.5899 -95.8703 1188.2096)" class="st2" cx="1121.82" cy="688.49" rx="6.78" ry="3.54"/>
		
			<ellipse transform="matrix(0.5899 -0.8075 0.8075 0.5899 -105.9779 1202.8547)" class="st2" cx="1131.19" cy="705.76" rx="6.78" ry="3.54"/>
		
			<ellipse transform="matrix(0.5899 -0.8075 0.8075 0.5899 -105.5782 1161.427)" class="st2" cx="1090.6" cy="684.65" rx="6.78" ry="3.54"/>
		
			<ellipse transform="matrix(0.2726 -0.9621 0.9621 0.2726 32.2641 1541.0807)" class="st2" cx="1035.33" cy="749.2" rx="6.92" ry="3.46"/>
		
			<ellipse transform="matrix(0.7764 -0.6302 0.6302 0.7764 -225.5229 860.5277)" class="st2" cx="1100.04" cy="748.11" rx="6.65" ry="3.6"/>
		
			<ellipse transform="matrix(0.7377 -0.6752 0.6752 0.7377 -274.1014 934.7375)" class="st2" cx="1065.81" cy="820.09" rx="6.68" ry="3.59"/>
		
			<ellipse transform="matrix(0.11 -0.9939 0.9939 0.11 112.7256 1689.0536)" class="st2" cx="999.51" cy="781.58" rx="6.96" ry="3.44"/>
		
			<ellipse transform="matrix(0.5899 -0.8075 0.8075 0.5899 -270.558 1195.3971)" class="st2" cx="1041.55" cy="864.05" rx="6.78" ry="3.54"/>
		<path class="st1" d="M998.64,858.34c0,0-5.72-52.71,0-71.31"/>
		<path class="st1" d="M1005.99,845.15c0,0,44.29-14.34,56.68-23.05"/>
		<path class="st1" d="M1031.27,802.69c0,0-1.61-33.25,2.15-48.22"/>
		<path class="st1" d="M1062.93,758.54c0,0,23.07-0.99,33.55-7.14"/>
		<path class="st1" d="M1083.62,731.93c0,0,0-31.76,4.29-42.52"/>
		<path class="st1" d="M1096.96,716.56c0,0,13.81,2.05,30-7.17"/>
		<path class="st1" d="M987.42,881.02c0,0,27.62,1.02,51.91-13.32"/>
	</g>
	<g>
		<path class="st1" d="M703.67,849.71c0,0,14.8-99.68-54.48-251.86"/>
		
			<ellipse transform="matrix(0.9475 -0.3197 0.3197 0.9475 -155.617 238.0587)" class="st2" cx="647.27" cy="593.01" rx="3.52" ry="6.13"/>
		
			<ellipse transform="matrix(0.9475 -0.3197 0.3197 0.9475 -160.0611 233.8663)" class="st2" cx="632.28" cy="604.45" rx="3.52" ry="6.13"/>
		
			<ellipse transform="matrix(0.9475 -0.3197 0.3197 0.9475 -156.1716 248.2222)" class="st2" cx="677.95" cy="599.78" rx="3.52" ry="6.13"/>
		
			<ellipse transform="matrix(0.1092 -0.994 0.994 0.1092 -37.9705 1300.4365)" class="st2" cx="706.58" cy="671.4" rx="6.2" ry="3.47"/>
		
			<ellipse transform="matrix(0.8119 -0.5838 0.5838 0.8119 -257.8219 499.5108)" class="st2" cx="646.24" cy="649.85" rx="3.5" ry="6.16"/>
		
			<ellipse transform="matrix(0.8487 -0.5289 0.5289 0.8487 -282.5938 454.2744)" class="st2" cx="652.64" cy="721.03" rx="3.51" ry="6.15"/>
		
			<ellipse transform="matrix(0.304 -0.9527 0.9527 0.304 -169.0857 1188.2888)" class="st2" cx="728.7" cy="709.86" rx="6.28" ry="3.43"/>
		
			<ellipse transform="matrix(0.9475 -0.3197 0.3197 0.9475 -210.1065 251.0471)" class="st2" cx="659.59" cy="765.47" rx="3.52" ry="6.13"/>
		<path class="st1" d="M701.91,774.42c0,0,24.29-42.24,25.6-59.63"/>
		<path class="st1" d="M699.74,761.04c0,0-36.43-26.16-44.93-37.4"/>
		<path class="st1" d="M691.25,717.45c0,0,13.45-27.29,15.29-41"/>
		<path class="st1" d="M677.38,670.4c0,0-21.3-8.2-28.93-16.7"/>
		<path class="st1" d="M667.51,641.54c0,0,11.4-26.56,11.24-36.93"/>
		<path class="st1" d="M660.51,624.43c0,0-13.7-2.7-25.59-15.59"/>
		<path class="st1" d="M704.3,796.97c0,0-26.3-7.98-43.95-27.74"/>
	</g>
	<g>
		<path class="st1" d="M654.22,889.72c0,0-11.13-100.16-116.95-229.62"/>
		
			<ellipse transform="matrix(0.8345 -0.5509 0.5509 0.8345 -272.9824 402.7919)" class="st3" cx="534.14" cy="655.9" rx="3.52" ry="6.13"/>
		
			<ellipse transform="matrix(0.8345 -0.5509 0.5509 0.8345 -283.0987 398.88)" class="st3" cx="522.57" cy="670.78" rx="3.52" ry="6.13"/>
		
			<ellipse transform="matrix(0.8345 -0.5509 0.5509 0.8345 -267.0854 419.874)" class="st3" cx="565.53" cy="654.62" rx="3.52" ry="6.13"/>
		
			<ellipse transform="matrix(0.989 -0.1481 0.1481 0.989 -99.3784 98.4764)" class="st3" cx="611.59" cy="716.58" rx="3.47" ry="6.2"/>
		
			<ellipse transform="matrix(0.636 -0.7717 0.7717 0.636 -349.3927 681.4928)" class="st3" cx="547.69" cy="711.1" rx="3.5" ry="6.16"/>
		
			<ellipse transform="matrix(0.6856 -0.728 0.728 0.6856 -386.7354 661.1417)" class="st3" cx="572.04" cy="778.3" rx="3.51" ry="6.15"/>
		
			<ellipse transform="matrix(0.0508 -0.9987 0.9987 0.0508 -137.1204 1352.0234)" class="st3" cx="642.71" cy="748.15" rx="6.28" ry="3.43"/>
		
			<ellipse transform="matrix(0.8345 -0.5509 0.5509 0.8345 -353.864 460.6683)" class="st3" cx="590.06" cy="819.5" rx="3.52" ry="6.13"/>
		<path class="st1" d="M633.3,817.38c0,0,12.71-47.04,9.54-64.19"/>
		<path class="st1" d="M627.79,805c0,0-41.9-16-52.98-24.7"/>
		<path class="st1" d="M608.46,765.01c0,0,6.04-29.82,4.32-43.55"/>
		<path class="st1" d="M583.04,723.07c0,0-22.69-2.5-32.23-8.76"/>
		<path class="st1" d="M566.13,697.68c0,0,4.25-28.59,1.45-38.57"/>
		<path class="st1" d="M555,682.92c0,0-13.94,0.88-28.72-8.55"/>
		<path class="st1" d="M641.37,838.57c0,0-27.46-1-49.57-15.6"/>
	</g>
	<g>
		<rect x="637.64" y="723.77" class="st4" width="332.12" height="226.53"/>
		<rect x="670.31" y="743.45" class="st5" width="278.02" height="206.04"/>
	</g>
	<g id="flower3">
		<path class="st6" d="M910.88,948.07c0,0,24.09-174.44,50.66-166.96c26.57,7.48-9.57,111.25-20.19,136.49
			c0,0,46.77-107.51,72.27-92.55c25.51,14.96-37.2,99.1-52.08,105.64c0,0,51.02-30.85,48.89-14.02
			c-2.13,16.83-28.92,28.75-48.05,31.55L910.88,948.07z"/>
		<g>
			<path class="st7" d="M923.69,947.5c2.23-10.95,4.57-21.89,6.92-32.81l7.18-32.76l7.41-32.71l3.78-16.33l3.89-16.31l-3.4,16.42
				l-3.51,16.4l-7.18,32.76l-7.41,32.7C928.85,925.75,926.33,936.64,923.69,947.5z"/>
		</g>
		<g>
			<path class="st7" d="M939.61,943.28c4.47-7.35,9.03-14.64,13.6-21.92l13.83-21.77l14.02-21.65l7.08-10.78l7.17-10.72l-6.76,10.99
				l-6.85,10.93l-13.83,21.77l-14.03,21.65C949.15,928.97,944.43,936.15,939.61,943.28z"/>
		</g>
		<g>
			<path class="st7" d="M948.89,945.95c3.1-2.11,6.25-4.12,9.42-6.12c3.16-2.01,6.36-3.95,9.56-5.89c3.21-1.92,6.42-3.84,9.68-5.69
				l4.88-2.78c1.65-0.89,3.27-1.82,4.93-2.69c-1.54,1.06-3.12,2.07-4.68,3.11l-4.74,3.02c-3.16,2.01-6.36,3.95-9.56,5.89
				c-3.21,1.92-6.42,3.84-9.68,5.69C955.46,942.35,952.21,944.19,948.89,945.95z"/>
		</g>
	</g>
	<g>
		<path class="st8" d="M701.77,467.33h-9.62c-79.66-24.76-110.05-163.12-116-194.66c-0.63-3.34,1.92-6.43,5.31-6.47l68.72-0.8h7
			l6.58,29.81l-53.79,0.54c0,0,19.98,110.77,84.85,140.13L701.77,467.33z"/>
		<path class="st8" d="M1022.1,279.09c-6.45,33.64-37.06,169.03-115.78,193.48h-9.62l6.94-31.45
			c64.87-29.36,84.85-140.13,84.85-140.13l-53.79-0.54l6.58-29.8h7l67.57,0.78C1019.86,271.48,1022.85,275.14,1022.1,279.09z"/>
		<path class="st9" d="M650.86,244.41c0,0-1.33,298.18,146.76,302.19c148.09,4,146.76-302.19,146.76-302.19L650.86,244.41
			L650.86,244.41z"/>
		<path class="st10" d="M685.67,244.58c0,0-5.4,243.41,60.14,285.62l18.89,10c0,0-57.77-114.42-31.11-295.5L685.67,244.58z"/>
		<path class="st11" d="M952.02,244.82H645.45c-3.22,0-5.83-2.61-5.83-5.83v-18.53c0-3.22,2.61-5.83,5.83-5.83h306.57
			c3.22,0,5.83,2.61,5.83,5.83v18.53C957.85,242.21,955.24,244.82,952.02,244.82z"/>
		<polygon class="st10" points="687.49,215 685.27,239.18 733.05,239.71 731.94,215 		"/>
		<path class="st12" d="M923.49,287.8c0,0,2.93,150.5-62.29,224.91"/>
		<ellipse class="st10" cx="923.28" cy="281.85" rx="3.14" ry="3.45"/>
		<path class="st13" d="M787.31,545.84c0,0,23.6,137.88-133.31,178.14l296.14-0.87c0,0-149.55-62.1-138.19-177.72v-13.42
			l-25.81-1.03L787.31,545.84z"/>
		<path class="st14" d="M792.99,531.2c0,0,4.31,115.07-41.49,149.52l21.14,1.57c0,0,35.23-67.71,29.36-150.3L792.99,531.2z"/>
		<path class="st14" d="M749.16,684.64l18.4,1.57c0,0-12.13,8.61-15.66,10.18l-15.26-1.57
			C736.63,694.81,748.76,686.99,749.16,684.64z"/>
	</g>
	<g>
		<g>
			<path class="st15" d="M1436.9,950.62c-11.74-11.04-27.18-15.37-43.14-15.38c-5.39,0-9.58-4.82-8.61-10.13
				c2.62-14.39,13.02-29.07,5.58-41.35c-8.63-14.25-30.32-8.4-45.18-0.86c-17.49,8.88-34.99,17.75-52.48,26.63
				c-11.38,5.78-23.65,11.72-36.31,10.1c-12.66-1.61-24.63-14.45-20.3-26.46c2.4-6.67,9.07-11.46,10.24-18.46
				c2.42-14.51-18.2-20.45-32.83-18.99c-43.94,4.39-86.18,20.33-124.64,42.05c-25.93,14.64-52.73,32.58-82.45,30.61
				c-41.32-2.74-69.32-41.83-91.14-77.03c-12.81-20.66-25.63-41.32-38.44-61.98c-7.93-12.78-16.21-25.93-28.62-34.42
				s-30.2-11.04-42.17-1.94c-6.39,4.85-10.4,12.35-16.94,17.01c-14.03,9.99-34.03,3.29-47.53-7.4
				c-13.51-10.69-24.34-25.11-39.83-32.64c-20.67-10.05-46.67-5.34-64.92,8.64c-18.25,13.98-29.26,35.93-33.5,58.52
				c-5.16,27.51-6.15,63.59-32.75,72.31c-8.73,2.86-18.28,1.58-27.19-0.67c-34.99-8.81-64.65-31.29-93.91-52.39
				c-29.26-21.1-60.65-41.93-96.43-46.54s-76.9,12.16-88.52,46.32c-11.23,33.01,7.46,67.96,16.4,101.38
				c0.53,1.99,0.76,4.06,0.54,6.11c-1.03,9.53-9.5,10.75-16.63,10.66c-24.54-0.3-48.92-8.42-68.74-22.9
				c-16.64-12.16-30.83-29.02-50.65-34.69s-46.8,9.35-41.76,29.33c1.88,7.45,7.66,13.22,13.51,18.2
				c12.91,10.98,27.42,20.08,42.93,26.92L1436.9,950.62z"/>
			<line class="st1" x1="382.28" y1="950.62" x2="308.28" y2="775.04"/>
			<line class="st1" x1="333.37" y1="833.98" x2="364.72" y2="770.02"/>
			<line class="st1" x1="339.64" y1="844.02" x2="378.52" y2="776.29"/>
			<line class="st1" x1="268.15" y1="871.61" x2="354.69" y2="882.9"/>
			<line class="st1" x1="270.66" y1="884.15" x2="358.45" y2="896.69"/>
			<line class="st1" x1="483.87" y1="841.51" x2="430.08" y2="950.91"/>
			<line class="st1" x1="115.14" y1="881.64" x2="201.33" y2="951.19"/>
			<line class="st1" x1="156.53" y1="913" x2="152.76" y2="881.64"/>
			<line class="st1" x1="128.94" y1="934.32" x2="170.32" y2="926.79"/>
			<line class="st1" x1="121.41" y1="925.54" x2="162.8" y2="919.27"/>
			<path class="st1" d="M685.74,723.98c0,0-22.39,220.35-28.79,226.64"/>
			<line class="st1" x1="623.66" y1="766.41" x2="673.83" y2="844.17"/>
			<line class="st1" x1="614.47" y1="773.85" x2="669.65" y2="861.65"/>
			<path class="st1" d="M665.47,896.95c0,0,52.68-35.12,85.28-82.78"/>
			<path class="st1" d="M860.1,780.63c0,0-15.13,39.68-27.86,81.79c-9.67,31.98-17.97,65.36-17.22,83.82"/>
			<path class="st1" d="M887.89,827.71c0,0-23.22,30.64-55.42,38.43"/>
			<path class="st1" d="M826.81,885.91c0,0,44.42-13.18,66.03-37.14"/>
			<path class="st1" d="M788.46,832.98c0,0,10.35,55.21,33.36,74.77"/>
			<path class="st1" d="M1140.97,950.27c0,0,26.99-52.15,79.6-78.23"/>
			<path class="st1" d="M1142.35,873.42c0,0-8.69,33.4,14.64,51.24"/>
			<path class="st1" d="M1151.49,869.3c0,0-13.27,33.4,11.89,47.58"/>
			<path class="st1" d="M1177.11,903.61c0,0,26.53,14.18,46.66-5.03"/>
			<line class="st1" x1="1357.36" y1="888.06" x2="1323.05" y2="950.27"/>
			<line class="st1" x1="1317.1" y1="899.02" x2="1332.16" y2="927.88"/>
			<line class="st1" x1="1323.05" y1="894.92" x2="1337.23" y2="923.74"/>
			<line class="st1" x1="1349.12" y1="904.53" x2="1379.77" y2="894.92"/>
			<line class="st1" x1="1329.45" y1="939.75" x2="1370.17" y2="930.14"/>
			<line class="st1" x1="1332.65" y1="932.89" x2="1368.34" y2="924.2"/>
			<path class="st1" d="M584.27,950.24c0,0-13.29-41.74-15.95-72.43"/>
			<path class="st1" d="M529.56,888.38c0,0,21.14,27.01,44.62,29.36"/>
			<path class="st1" d="M524.86,898.95c0,0,21.14,28.18,51.67,28.18"/>
			<path class="st1" d="M573.01,903.64c0,0,14.09-12.92,22.31-34.05"/>
			<line class="st1" x1="416.25" y1="842.38" x2="444.43" y2="917.54"/>
			<line class="st1" x1="428.58" y1="835.54" x2="452.06" y2="903.64"/>
		</g>
		<line class="st1" x1="160.48" y1="951.21" x2="102.9" y2="950.75"/>
		<line class="st1" x1="1436.9" y1="950.62" x2="1464.64" y2="950.71"/>
	</g>
	<g>
		<polygon class="st16" points="572.43,601.3 554.04,622.37 577.87,646.96 594.54,623.64 		"/>
		<path class="st17" d="M572.82,601.53l-20.3-22.11l-37.72,43.25c0,0,1.95,8.79,6.25,6.31s24.3-11,32.49-6.79L572.82,601.53z"/>
		<polygon class="st16" points="810.08,1061 841.09,1060.5 840.78,1028.57 809.42,1031.68 		"/>
		<path class="st17" d="M809.93,1060.58l-0.6,28.74l63.64-1.03c0,0,5.18-7.06-0.19-8.53c-5.38-1.46-28.05-10.22-31.43-18.77
			L809.93,1060.58z"/>
		<path class="st18" d="M766.73,348.82c-1.05,7.91-2.43,16.05-0.47,23.79c4.08,16.14,21.5,26.47,24.94,42.76
			c3.01,14.26-5.77,28.42-16.17,38.63c-2.35,2.3-4.86,4.54-7.9,5.79c-4.44,1.81-9.45,1.29-14.18,0.48
			c-20.76-3.58-41.71-13.38-52.57-31.43c-7.97-13.24-9.62-29.33-9.2-44.77c0.35-12.6,1.99-25.3,6.51-37.07s12.11-22.6,22.63-29.55
			c9.15-6.04,22.53-8.09,32.74-3.58C767.6,320.31,768.59,334.86,766.73,348.82z"/>
		<path class="st18" d="M726.14,298.99c-8.64,0.73-15.7,7.13-23.98,9.71c-4.28,1.33-8.82,1.62-13.12,2.88
			c-11.24,3.27-20.08,13.6-21.58,25.21c-1,7.77,0.92,16.18-2.66,23.14c-3.16,6.14-9.88,9.57-16.48,11.57
			c-6.6,2.01-13.58,3.03-19.7,6.23c-7.94,4.16-13.85,12-15.66,20.78s0.51,18.32,6.16,25.28c6.92,8.54,18.23,13.08,23.82,22.54
			c5.65,9.55,4.03,21.6,1.57,32.42c-4.2,18.45-10.32,36.47-13.38,55.15s-2.84,38.54,5.22,55.66c1.64,3.49,3.73,6.98,7.04,8.97
			c2.8,1.69,6.19,2.12,9.45,2.01c17.07-0.57,30.42-14.21,42.14-26.63c2.23-2.36,4.67-4.83,7.84-5.51
			c7.49-1.6,12.92,7.36,13.71,14.98c0.8,7.62-0.12,16.25,4.98,21.97c3.83,4.3,10.25,5.57,15.89,4.43c5.65-1.13,10.66-4.32,15.24-7.8
			c22.94-17.43,38.44-43.85,44.29-72.05c3.28-15.81,3.54-32.84-3.23-47.5c-6.02-13.04-16.98-23.03-27.66-32.64
			c-7.76-6.98-15.51-13.96-23.27-20.94c-3.45-3.11-6.97-6.29-9.19-10.37c-1.7-3.12-2.56-6.62-3.41-10.07
			c-5.31-21.69-12.54-51.47,3.33-70.73c5.59-6.79,12.77-8.92,13.12-19.06C747.03,307.56,737.3,298.06,726.14,298.99z"/>
		<path class="st19" d="M833.86,593.87c0,0,10.24,111.73,9.21,238.15s-1.02,201.89-1.02,201.89l-32.76,0.98l-58.35-452.78
			L833.86,593.87z"/>
		<path class="st20" d="M737.74,595.2c0,0-11.92,27.86-5.42,47.67c4.3,13.11-10.44,70.29-14.55,86.7c-0.51,2.02-2.98,2.75-4.52,1.35
			L591.19,619.35l-17.64,25.48c0,0,136.23,191.11,151.91,187.19s78.4-84.28,101.93-231.29l0.98-18.62l-84.28,5.88L737.74,595.2z"/>
		<path class="st21" d="M725.71,438.42l-97.83-3.04c-2.31-0.07-4.43-1.28-5.68-3.23l-60.24-94.17l-19.53,8.46l45.33,114.32
			c0.73,1.85,2.26,3.27,4.15,3.86l118.92,37.45c1.61,0.51,2.91,1.69,3.56,3.24c4.17,9.92,22.29,44.98,31.33,58.33
			c0,0,3.46,6.25,0.98,10.78c-2.24,4.09-8.77,14.38-11.51,18.66c-0.62,0.96-0.13,2.24,0.97,2.55c8.98,2.51,43.22,11.49,59.55,7.21
			c16.97-4.44,35.31-2.09,40.62-1.24c0.82,0.13,1.57-0.48,1.62-1.3l5.43-85.96c0.23-3.6-0.87-7.15-3.08-10l-23-29.57
			c-0.27-0.35,0.1-0.83,0.51-0.66l59.25,24.85l-25.22,53.8l14.73,12.54l68.12-78.9c3.12-3.62,2.09-9.19-2.12-11.45
			c-25.17-13.51-100.45-52.28-107.45-53.41c-8.71-1.4-53.9,6.86-53.9,6.86L725.71,438.42z"/>
		<path class="st15" d="M735.47,330.87c0,0,38.43,42.75,30.56,51.68c-6.93,7.86-15.48,9.89-13.93,13.48
			c1.26,2.92,20.22,35.95,20.22,35.95s-0.45,44.49-46.28,6.29l-15.28-54.82c0,0-18.11,6.67-18.11-10.85
			c0-17.52,14.51-3.98,14.51-3.98S699.52,327.27,735.47,330.87z"/>
		<path class="st18" d="M735.47,330.87c0,0-7.64,33.25-27.41,34.15l-4.94,0.45C703.11,365.47,700.87,324.13,735.47,330.87z"/>
		<path class="st18" d="M733.67,334.46c0,0,4.49,6.74,11.68,8.09l-9.89-11.68L733.67,334.46z"/>
		<path class="st1" d="M698.92,373.14c0,0,1.64,2.73,8.46,3"/>
		<g>
			<path class="st15" d="M542.54,346.17l-9.88-21.9c2.07-7.51,4.67-13.42,6.74-17.52c7.03-13.92,12.05-15.21,13.34-15.42
				c2.89-0.47,4.21-0.36,5.76-0.06c2.15,0.42,2.9,1.23,4.43,0.52c2.43-1.14,6.85-1.6,7.46,0.67c0.61,2.27,12.17,18.74,12.17,21.58
				s-0.38,12.49-4.64,12.49s-6.45-2.19-8.27-0.48c-1.83,1.7-2.91,2.76-5.96,1.06c-3.04-1.7-7.3-4.54-7.3-4.54l5.56,15.41
				L542.54,346.17z"/>
			<polyline class="st15" points="576.96,316.99 573.31,307.56 567.83,299.55 			"/>
			<polyline class="st15" points="567.25,319.23 564.2,311.21 557.51,301.79 			"/>
			<path class="st15" d="M548.41,319.62c0,0,3.19-0.95,8.28,2.81"/>
		</g>
		<path class="st15" d="M851.82,552.76c0,0-16.23,22.62-15.88,28.52c0.36,5.89,5.68,25.04,9.59,25.41c3.91,0.37,6.04,1.1,7.46,0
			c1.42-1.1,4.97,0.74,6.39-0.74c1.42-1.47,6.39-0.74,7.46-4.79l0.29-5.71c0.03-0.53,0.69-0.82,1.15-0.5
			c1.92,1.33,5.76,3.72,6.02,1.8c0.3-2.19-9.87-19.47-12.97-24.67c-0.52-0.87-0.38-1.98,0.34-2.7l4.68-4.66L851.82,552.76z"/>
		<path class="st22" d="M826.94,601.14c0,0-4.5,28.71-7.06,37.28c-2.51,8.43-13.29,51.26-13.29,51.26"/>
		<line class="st22" x1="578.47" y1="646.21" x2="593.5" y2="625.11"/>
		<line class="st22" x1="811.68" y1="1028.98" x2="838.79" y2="1027.87"/>
		<path class="st22" d="M713.66,731.09c0,0,5.28,1.98,7.92,10.12"/>
		<path class="st22" d="M740.17,592.88c0,0,37.28,9.74,51.26,6.35c13.98-3.39,45.33-0.85,45.33-0.85"/>
		<line class="st22" x1="546.14" y1="349.71" x2="563.09" y2="342.51"/>
		<line class="st22" x1="856.68" y1="549.67" x2="868.11" y2="559.41"/>
		<line class="st22" x1="817.82" y1="474.94" x2="812.41" y2="469.08"/>
		<path class="st22" d="M707.86,491.84c0,0,4.68,8.69,6.77,12.89"/>
		<path class="st22" d="M747.67,572.78c0,0,5.22-6.34,5.83-11.34"/>
		<path class="st22" d="M877.04,499.24c0,0,7.24-3.14,10.48-2.32"/>
		<path class="st22" d="M625.26,434.77c0,0-2.58-1.06-9.24-2.02"/>
		<path class="st22" d="M781.48,822.55c0,0,7.79-6.33,9.73-10.71"/>
		<path class="st22" d="M811.82,992.87c0,0-5.36,10.89,1.53,11.49c6.9,0.6-3.07,11.49-3.07,11.49"/>
	</g>
	<g>
		<path class="st17" d="M1074.97,979.04c-1.81,1.64-37.04,38.01-27.08,36.19c10.22-1.87,63.25-14.73,68.21-17.32
			c4.47-2.34-10.24-20.71-10.24-20.71L1074.97,979.04z"/>
		<path class="st17" d="M1248.99,761.54c1.86,1.73,38.79,39.31,28.16,36.97c-10.91-2.4-67.34-18.01-72.54-20.86
			c-4.69-2.57,11.54-19.83,11.54-19.83L1248.99,761.54z"/>
		<g>
			<path class="st15" d="M1044.74,322.96l5.4-19.17c4.91-4.56,9.35-7.74,12.6-9.84c11.01-7.13,14.66-6.02,15.53-5.64
				c1.96,0.84,2.71,1.46,3.49,2.31c1.09,1.18,1.14,2.07,2.41,2.18c2.02,0.18,4.89,1.65,4.15,3.53s-1.83,18.43-3.22,20.47
				s-6.32,8.82-8.88,7.08s-2.81-4.2-4.73-3.72c-1.93,0.48-3.1,0.8-4.09-1.67c-1-2.47-2.17-6.24-2.17-6.24l-3.03,14.88
				L1044.74,322.96z"/>
			<polyline class="st15" points="1080.31,316.61 1082.71,308.35 1083.33,300.36 			"/>
			<polyline class="st15" points="1073.38,314.26 1075.46,307.26 1076.04,297.76 			"/>
			<path class="st15" d="M1061.87,306.86c0,0,2.38,0.62,3.6,5.4"/>
		</g>
		<path class="st15" d="M1036.4,606.49c3.57,59.18,11.14,117.67,17.02,183.08c5.88,65.43,12.68,129.17,21.56,189.47
			c9.98-0.63,19.96-1.25,29.95-1.88c2.23-37.05,4.04-76.46,1.38-76.72c-0.69-0.07-1.67,2.53-2.32,2.32
			c-1.43-0.46,1.85-13.42,1.79-14.32c-2.25-31.13,2-218.74,2.09-220.16c0.02-0.28,0.09-0.65,0.34-0.97c0.09-0.12,0.2-0.22,0.32-0.31
			c1.8-1.28,7.02-5.05,12.09-9.34l102.74-74.46c1.63-1.18,3.9,0.07,3.78,2.07l-10.47,172.35l32.34,3.92
			c1.32-4.7,2.55-9.42,3.78-14.15c3.16-12.17,6.15-24.38,8.98-36.63c3.87-16.74,7.45-33.55,10.64-50.44
			c3.48-18.42,6.52-36.94,8.76-55.56c2.07-17.24,3.55-34.63,3.35-52.01c-0.07-6.31-0.37-12.63-1.08-18.9
			c-0.94-8.34-0.96-17.39-8.73-22.08c-4.82-2.91-10.67-3.62-16.2-3.4c-10.93,0.45-21.64,4.3-31.54,8.71
			c-18.31,8.16-35.27,19.3-51.46,31.03c-4.3,3.11-8.54,6.29-12.75,9.52c-2.32,1.78-4.62,3.58-6.91,5.39
			c-1.88,1.49-4.57,4.69-6.8,5.45c-12.51,4.22-48.24,16.28-48.24,16.28S1100.78,584.76,1036.4,606.49z"/>
		<path class="st23" d="M1044.26,323.08c0,0-33.43,85.64-29.51,91.52c3.47,5.21,59.31,56.63,71.95,68.24
			c2.15,1.98,1.2,5.37,0.64,7.89c-0.19,0.87-0.39,1.75-0.67,2.6c-1.78,5.39-4.93,10.24-8.04,14.95c-2.12,3.21-4.3,6.37-6.51,9.52
			c-5.14,7.35-5.97,8.55-6.87,9.89c-3.37,4.99-7.03,10.64-11.26,17.58c-10.28,16.86-15.42,25.29-20.05,36.26
			c-2.28,5.39-5.21,13.14-7.75,22.91c-0.04,0.28,0.02,0.61,0.08,1c0.06,0.37,0.2,0.71,0.57,0.88c6.75,2.99,45.61,5.48,70.83-5.82
			c28.42-12.74,51.64-30.49,51.64-30.49l44.78-71.11l75.9-88.23c1.61-1.87,2.42-4.3,2.25-6.76l-7.44-110.31l-18.81,4.03
			c0,0-7.8,81.7-8.78,85.62c-0.91,3.62-52.08,58.35-59.79,66.59c-0.62,0.66-1.48,1.03-2.39,1.03h-38.89c-0.56,0-1.1-0.16-1.57-0.46
			l-75.99-48.78c-1.64-1.05-2.56-2.94-2.37-4.88l6.56-69.36L1044.26,323.08z"/>
		<path class="st15" d="M1163.33,371.73c0,0-29.26,29.85-26.27,34.63s12.54,22.09,11.94,28.66c-0.6,6.57-10.75,17.91-10.75,17.91
			s11.34,22.09,34.03,0.6l0.6-25.67l11.34-8.36c0,0,7.33,0.48,11.34-4.18c3.87-4.5-6.57-5.37-6.57-5.37
			S1223.63,365.76,1163.33,371.73z"/>
		<path d="M1178.06,380.47c-3.13-1.88-7.15-1.31-10.61-0.15s-6.81,2.88-10.45,3.15c-5.76,0.43-11.36-2.97-14.64-7.73
			s-4.51-10.67-4.67-16.45c5.6,3.17,12.04,4.85,18.48,4.82c6.87-0.04,13.57-1.97,20.3-3.32c6.74-1.35,13.87-2.1,20.36,0.15
			s12.11,8.24,11.96,15.11c-0.15,7.02-5.88,12.64-7.68,19.42c3.02-0.29,6.1,0.13,8.93,1.22c0.82,0.32,1.67,0.73,2.14,1.47
			c1.02,1.62-0.25,3.67-1.46,5.15c-2.89,3.54-5.79,7.07-8.68,10.61c-3.6,4.4-7.29,8.89-12.1,11.92c-4.81,3.04-11.95,3.99-17.19,1.77
			c4.56-3.37,7.14-6.15,11.45-8.58c1.34-0.76,3.77,0.35,5.75-0.5c1.87-0.79,7.98-4.16,5.8-5.9c-3.22-2.58-4.33-1.7-7.14-2.43
			c-2.32,1.18,3.47-8.38,3.55-7.76c0,0.02,2.83-7.02,1.8-8.64c-1.38-2.16-7.31-2.45-9.34-4.97
			C1182.38,386.07,1181.28,382.4,1178.06,380.47z"/>
		<path class="st1" d="M1192,414.19c0,0-1.61,1.93-4.33,1.12"/>
		<path class="st15" d="M1246.55,297.45l0.48-18.73c-0.04-1.05-0.58-2.04-1.48-2.72l-11.01-8.32c-0.46-0.35-1.17-0.21-1.42,0.28
			l-1.14,2.23c-0.21,0.42-0.01,0.91,0.46,1.09l2.74,1.11c0.51,0.2,0.78,0.7,0.66,1.18l-0.3,1.21c-0.18,0.71-0.88,1.22-1.7,1.24
			c-2.41,0.05-7.1,0.04-7.1-0.76c0-1.08-2.43-10.8-2.43-10.8s3.64-9.36,6.47-9.72s7.24-6.61,8.9-6.48c1.58,0.12,4.21-3.48,6.64-4.2
			c1.19-0.35,4.01-1.09,5.51-1.62c1.52-0.54,3.22,0.21,3.66,1.6c2.09,6.59,7.41,23.72,8.06,29.78l0.8,20.66L1246.55,297.45z"/>
		<path class="st15" d="M1234.36,267.46c-0.23-0.05-2.59-1.5-2.25-3.54"/>
		<line class="st24" x1="1079.78" y1="974.03" x2="1102.89" y2="972.82"/>
		<line class="st24" x1="1220.11" y1="752.54" x2="1246.39" y2="755.86"/>
		<path class="st1" d="M1223.34,583.19c0,0,5.34-5.7,14.11-5.11"/>
		<path class="st22" d="M1032.67,601.49c0,0,39.2,3.51,57.92-1.17"/>
		<line class="st22" x1="1045.54" y1="326.49" x2="1059.58" y2="329.42"/>
		<line class="st22" x1="1248.57" y1="300.75" x2="1262.61" y2="298.41"/>
		<path class="st22" d="M1237.22,383.24c0,0,6.66,4.68,6.66,11.7"/>
		<path class="st22" d="M1058.59,401.62c0,0-7.65-4.52-11.88-4.52"/>
		<path class="st15" d="M1049.05,613.74c0,0,0,18.1-8.42,23.57"/>
		<path class="st15" d="M1108.23,667.47c0,0-5.19-19.05-14.51-29.99"/>
		<path class="st15" d="M1092.52,643.8c0,0,9.15,9.46,11.25,14.28"/>
	</g>
	<g>
		<path class="st25" d="M281.44,843.64l-2.4,1.95C279.81,844.89,280.61,844.23,281.44,843.64z"/>
		<path class="st15" d="M465.06,530.71l-72.34-5.64c-1.04-0.08-1.86,0.86-1.64,1.88l40.1,185.24c0.38,1.75-0.24,3.57-1.61,4.73
			l-103.61,87.03c-4.61,2.65-8.14,3.01-10.58,2.78c-0.63-0.06-3.54-0.37-7.14,0.17c-1.69,0.25-2.93,0.6-3.49,1.61
			c-0.64,1.15-0.05,2.56,0,2.68c0.68,1.57,2.52,2.56,4.68,3.72c0,0,1.03,0.55,1.68,1.5c0.28,0.41,0.44,0.88,0.4,1.47
			c-0.05,0.79-0.49,1.53-1.12,2.03c-1.34,1.07-3.06,1.11-4.7,1.2c-0.06,0-0.13,0.01-0.19,0.01c-6.29,0.33-12.52,1.5-18.5,3.46
			c-1.65,0.54-2.08,2.69-0.78,3.84l3.82,3.39c0.01,0.01,0.02,0.03,0.03,0.04l0.01,0.01c0.68,0.61,0.6,1.7-0.1,2.29l-28.57,24.01
			c-0.63,0.53-0.74,1.46-0.25,2.12l20.8,28.04c0.49,0.66,1.4,0.82,2.09,0.38l226.03-145.57c1.37-2.46,2.63-4.96,3.79-7.47
			C507.67,660.5,487.78,585.36,465.06,530.71z M279.04,845.59c0.77-0.7,1.57-1.36,2.4-1.95L279.04,845.59z"/>
		<path class="st15" d="M352.42,545.49L299.2,653.82c-0.89,1.81-3.16,2.45-4.86,1.37L130.92,551.37l-21.56,23.52
			c0,0,175.43,177.39,201.89,180.33c26.46,2.94,152.89-217.57,152.89-217.57l-104.87,1.96L352.42,545.49z"/>
		<path class="st26" d="M398.74,390.28l74.44-93.26c0.92-1.15,1.19-2.69,0.72-4.08L435.03,178.3l17.46-8.73l69.95,117.68
			c1.19,2.01,1.27,4.49,0.19,6.57L458.78,417c-0.58,1.12-0.68,2.42-0.28,3.62c3.69,11.05,22.42,69.38,14.55,111.16l-0.62,3.51
			c0,0-8.96,26.68-123.01,10.58l-4.86-1.11c-0.22,0-2.04-0.79-1.87-0.94c3.47-2.95,23.11-20.78,22.49-26.32
			c-0.56-5.01-15.4-32.14-20.48-41.31c-0.97-1.75-3.06-2.53-4.94-1.85l-77.83,28.19c-2.36,0.86-4.98-0.3-5.94-2.62l-56.53-137
			l18.61-9.1l57.06,90.56c1.19,1.9,3.57,2.68,5.66,1.87l78.86-30.47L398.74,390.28z"/>
		<path class="st15" d="M361.9,311.49c0,0,29.47,23.24,28.34,35.14c-1.13,11.9-11.34,24.94-11.34,24.94l19.84,18.7
			c0,0,1.13,43.08-39.11,25.51l-19.84-48.75c0,0-19.84,7.37-18.7-9.64c0,0,3.4-7.37,12.47-5.67
			C333.56,351.73,310.32,302.42,361.9,311.49z"/>
		<path class="st27" d="M335.06,352.25c0,0,3.51-2.64,3.13-9.1c-0.1-1.75,0.11-2.83,0.63-3.61c2.51-3.73,6.56-3.43,10.62-6.51
			c6.88-5.22,2.43-14.63,10.24-20.86c2.59-2.06,3.49-1.36,5.48-3.52c4.09-4.44,4.15-11.63,2.93-16.04
			c-3.16-11.44-19.25-19.73-29.73-15.84c-7.86,2.92-12.03,12.49-17.99,26.21c-1.61,3.7-1.14,3.19-2.1,5.11
			c-7.89,15.65-22.12,15.15-23.13,23.64c-0.63,5.34,4.81,7.25,6.06,19.36c0.28,2.73,0.02,2.76,0.39,4.69
			c1.02,5.34,4.28,11.68,9.87,15.79c2.85,2.1,4.8,2.26,7.4,5.39c1.22,1.47,1.62,2.77,3.37,4.82c3.4,3.97,24.37,2.83,24.37,2.83
			l-6.8-17.57c0,0-13.04,5.67-18.14-3.4C321.66,363.64,317,348.98,335.06,352.25z"/>
		<path class="st15" d="M436.2,176.3l-15.37-12.79c0,0-7.64,2.4-7.68,2.41c-0.78,0.24-2.45-0.27-3.19-0.66
			c-1.21-0.65-1.32-1.97-2.23-2.64c-1.26-0.93-4.55,1.5-5.23-0.69c-0.89-2.83-2.09-2.58-2.09-2.58s-5.09-0.04-4.83-1.97
			s8.21-13.65,8.21-13.65s15.76-11.83,22.94-10.14c0,0,11.78,10.13,15.11,16.41c3.33,6.27,7.68,20.75,7.68,20.75l-12.29,6.51
			L436.2,176.3z"/>
		<path class="st1" d="M420.83,163.52c0,0,9.03-2.19,12.09-4.61"/>
		<polyline class="st1" points="402.82,154.96 408.78,147.53 416.34,144.35 		"/>
		<polyline class="st1" points="409.26,159.51 413.44,154.2 419.72,152.08 		"/>
		<path class="st15" d="M214.41,354.7l-0.31-19.9c0,0,6.64-4.37,6.68-4.4c0.67-0.44,1.33-2.05,1.48-2.88
			c0.26-1.34-0.7-2.25-0.66-3.38c0.06-1.56,4.01-2.56,2.74-4.46c-1.65-2.47-0.69-3.24-0.69-3.24s3.15-3.94,1.49-4.96
			c-1.66-1.02-15.73-2.28-15.73-2.28s-19.04,4.68-22.22,11.27c0,0,0.5,15.46,3.28,21.98c2.79,6.52,11.3,19,11.3,19l12.75-5.36
			L214.41,354.7z"/>
		<path class="st1" d="M214.09,334.8c0,0-7.35,5.58-11.14,6.4"/>
		<polyline class="st1" points="218.72,315.54 209.22,315.44 202.02,319.26 		"/>
		<polyline class="st1" points="218.22,323.36 211.48,323.24 205.91,326.74 		"/>
		<path class="st28" d="M130.92,551.37c-1.63-2.28-23.05-19.01-23.05-19.01L48.3,595.95c0,0-6.39,18.13,61.07-21.06L130.92,551.37z"
			/>
		<path class="st28" d="M260.04,858.94c-2.52,1.21-22.71,19.42-22.71,19.42l52.33,69.67c0,0,20.1,14.67-6.83-58.54L260.04,858.94z"
			/>
		<path class="st1" d="M326.58,359.42c0,0,3.99,1,9.97,0"/>
		<path class="st1" d="M351.28,540.7c0,0,72.63,14.23,116.43-5.84"/>
		<path class="st1" d="M365.17,517.51c0,0,2.89-0.93,3.76-8.14"/>
		<path class="st1" d="M276.82,446.16c0,0-8.03,13.87-4.74,22.63"/>
		<path class="st1" d="M474.32,295.02c0,0-1.2-6.11,19.4-4.46"/>
		<line class="st1" x1="439.36" y1="180.31" x2="451.24" y2="175.03"/>
		<line class="st1" x1="204.34" y1="366.47" x2="216.66" y2="360.31"/>
		<path class="st1" d="M343.43,474.72c0,0-3.34-4.8-9.93-6.91"/>
		<path class="st1" d="M458.22,419.75c-0.19-0.57-1.72-5.75-2.49-8.24"/>
		<path class="st24" d="M294.94,654.89c0,0,7.66,2.98,7.66,12.23"/>
		<path class="st24" d="M429.1,717.49c0,0,5.41-6.32,13.65-8.16"/>
		<line class="st24" x1="116" y1="577.45" x2="133.81" y2="558.48"/>
		<line class="st24" x1="267.15" y1="857.91" x2="284.97" y2="882.62"/>
		<path class="st25" d="M281.44,843.64l-2.4,1.95C279.81,844.89,280.61,844.23,281.44,843.64z"/>
	</g>
	<g id="element">
		<line class="st29" x1="563.09" y1="158.07" x2="573.78" y2="162.92"/>
		<g>
			<circle class="st3" cx="174.91" cy="689.1" r="7.9"/>
			<polygon class="st30" points="105.63,343.66 124.67,367.45 146.88,305.58 122.29,347.62 			"/>
			<path class="st31" d="M268.84,448.51c12.19,10.02,12.41,50.86,11.15,65.89c-2.28,27.28-11.65,52.68-23.44,74.83
				c-12.89,24.2-30.23,45.76-41.45,72.22c-12.59,29.69-13.69,65.74-8.86,98.64c7.96,54.23,31.1,106,59.15,146.11
				c2.81,4.01,5.69,7.93,8.72,11.65c-20.33-33.76-37.84-72.26-50.61-112.03c-12.32-38.39-21.19-85.88-7.77-126.01
				c8.03-24.02,21.68-45.64,33.88-65.94c2.22-3.69,4.46-7.37,6.72-11.02C300.6,531.13,282.56,459.79,268.84,448.51z"/>
			<path class="st32" d="M1343.32,323.03c0,0,65.07,391.54-97.6,567.68c0,0,64.54-64.59,92.68-168.5
				C1367.58,614.43,1374.73,463.27,1343.32,323.03z"/>
			<circle class="st15" cx="196.7" cy="866.73" r="12.76"/>
			<circle class="st1" cx="178.47" cy="688.13" r="7.9"/>
			<ellipse class="st33" cx="558.51" cy="534.64" rx="5.83" ry="5.87"/>
			<line class="st29" x1="569.02" y1="154.58" x2="567.85" y2="166.42"/>
			<circle class="st34" cx="762.88" cy="177.84" r="9.11"/>
			<ellipse class="st1" cx="1167.08" cy="90.31" rx="7.9" ry="7.29"/>
			<polygon class="st33" points="1074.3,206.88 1086.75,200.41 1084.37,214.1 1094.44,223.8 1080.53,225.8 1074.3,238.26 
				1068.08,225.8 1054.17,223.8 1064.24,214.1 1061.86,200.41 			"/>
			<polygon class="st2" points="241.58,186.48 249.78,182.15 248.22,191.33 254.85,197.83 245.68,199.17 241.58,207.52 
				237.48,199.17 228.3,197.83 234.94,191.33 233.37,182.15 			"/>
			<ellipse class="st2" cx="1190.88" cy="290.48" rx="7.22" ry="7.04"/>
			<ellipse class="st35" cx="1414.1" cy="829.67" rx="9.11" ry="9.72"/>
			<path class="st1" d="M919.31,137.23c1.5,13.84,12.8,21.86,23.09,23.13c5.03,0.62,10.3,0.13,14.77-3.05s7.97-9.46,7.86-16.29
				s-4.62-13.42-9.64-12.78c-2.77,6.23-0.78,14.84,3.33,19.54c4.11,4.69,9.74,6.14,15.12,6.21c3.96,0.05,8.08-0.63,11.41-3.53
				c8-6.99,7.86-22.6,6.8-35.4"/>
			<polygon class="st1" points="1071.4,207.99 1083.84,201.53 1081.46,215.22 1091.53,224.92 1077.62,226.92 1071.4,239.38 
				1065.18,226.92 1051.26,224.92 1061.33,215.22 1058.95,201.53 			"/>
			<polygon class="st1" points="244.06,184.3 252.26,179.97 250.7,189.15 257.33,195.65 248.16,196.99 244.06,205.34 239.96,196.99 
				230.78,195.65 237.42,189.15 235.85,179.97 			"/>
			<ellipse class="st1" cx="1187.44" cy="290.48" rx="7.22" ry="7.04"/>
			<ellipse class="st15" cx="224.1" cy="523.61" rx="2.81" ry="2.85"/>
			<ellipse class="st15" cx="934.9" cy="586.13" rx="1.67" ry="1.8"/>
			<ellipse class="st33" cx="988.78" cy="488.37" rx="2.62" ry="2.65"/>
		</g>
	</g>
</g>
</svg>
